<mxfile host="app.diagrams.net" agent="Mozilla/5.0 (Windows NT 10.0; Win64; x64; rv:133.0) Gecko/20100101 Firefox/133.0" version="24.7.12">
  <diagram name="Seite-1" id="iZZ0rLakXCbBjYncXMXc">
    <mxGraphModel dx="1167" dy="643" grid="1" gridSize="10" guides="1" tooltips="1" connect="1" arrows="1" fold="1" page="1" pageScale="1" pageWidth="827" pageHeight="1169" math="0" shadow="0">
      <root>
        <mxCell id="0" />
        <mxCell id="1" parent="0" />
        <mxCell id="eX7FBQ3VJi4Dxy8bf9lc-33" style="edgeStyle=orthogonalEdgeStyle;rounded=0;orthogonalLoop=1;jettySize=auto;html=1;entryX=0.5;entryY=0;entryDx=0;entryDy=0;" parent="1" source="eX7FBQ3VJi4Dxy8bf9lc-1" target="eX7FBQ3VJi4Dxy8bf9lc-26" edge="1">
          <mxGeometry relative="1" as="geometry" />
        </mxCell>
        <mxCell id="eX7FBQ3VJi4Dxy8bf9lc-1" value="" style="shape=umlActor;verticalLabelPosition=bottom;verticalAlign=top;html=1;outlineConnect=0;" parent="1" vertex="1">
          <mxGeometry x="413" y="30" width="30" height="60" as="geometry" />
        </mxCell>
        <mxCell id="eX7FBQ3VJi4Dxy8bf9lc-54" style="edgeStyle=orthogonalEdgeStyle;rounded=0;orthogonalLoop=1;jettySize=auto;html=1;entryX=0;entryY=0.5;entryDx=0;entryDy=0;" parent="1" source="eX7FBQ3VJi4Dxy8bf9lc-3" target="eX7FBQ3VJi4Dxy8bf9lc-15" edge="1">
          <mxGeometry relative="1" as="geometry">
            <Array as="points">
              <mxPoint x="113" y="420" />
              <mxPoint x="54" y="420" />
              <mxPoint x="54" y="240" />
            </Array>
          </mxGeometry>
        </mxCell>
        <mxCell id="eX7FBQ3VJi4Dxy8bf9lc-3" value="copy.js" style="rounded=1;whiteSpace=wrap;html=1;" parent="1" vertex="1">
          <mxGeometry x="83" y="340" width="60" height="40" as="geometry" />
        </mxCell>
        <mxCell id="eX7FBQ3VJi4Dxy8bf9lc-53" style="edgeStyle=orthogonalEdgeStyle;rounded=0;orthogonalLoop=1;jettySize=auto;html=1;entryX=0;entryY=0.5;entryDx=0;entryDy=0;" parent="1" source="eX7FBQ3VJi4Dxy8bf9lc-4" target="eX7FBQ3VJi4Dxy8bf9lc-15" edge="1">
          <mxGeometry relative="1" as="geometry">
            <Array as="points">
              <mxPoint x="183" y="420" />
              <mxPoint x="54" y="420" />
              <mxPoint x="54" y="240" />
            </Array>
          </mxGeometry>
        </mxCell>
        <mxCell id="eX7FBQ3VJi4Dxy8bf9lc-4" value="cut.js" style="rounded=1;whiteSpace=wrap;html=1;" parent="1" vertex="1">
          <mxGeometry x="153" y="340" width="60" height="40" as="geometry" />
        </mxCell>
        <mxCell id="eX7FBQ3VJi4Dxy8bf9lc-52" style="edgeStyle=orthogonalEdgeStyle;rounded=0;orthogonalLoop=1;jettySize=auto;html=1;entryX=0;entryY=0.5;entryDx=0;entryDy=0;" parent="1" source="eX7FBQ3VJi4Dxy8bf9lc-5" target="eX7FBQ3VJi4Dxy8bf9lc-15" edge="1">
          <mxGeometry relative="1" as="geometry">
            <Array as="points">
              <mxPoint x="253" y="420" />
              <mxPoint x="54" y="420" />
              <mxPoint x="54" y="240" />
            </Array>
          </mxGeometry>
        </mxCell>
        <mxCell id="eX7FBQ3VJi4Dxy8bf9lc-5" value="delete.js" style="rounded=1;whiteSpace=wrap;html=1;" parent="1" vertex="1">
          <mxGeometry x="223" y="340" width="60" height="40" as="geometry" />
        </mxCell>
        <mxCell id="eX7FBQ3VJi4Dxy8bf9lc-51" style="edgeStyle=orthogonalEdgeStyle;rounded=0;orthogonalLoop=1;jettySize=auto;html=1;entryX=0;entryY=0.5;entryDx=0;entryDy=0;" parent="1" source="eX7FBQ3VJi4Dxy8bf9lc-6" target="eX7FBQ3VJi4Dxy8bf9lc-15" edge="1">
          <mxGeometry relative="1" as="geometry">
            <Array as="points">
              <mxPoint x="323" y="420" />
              <mxPoint x="54" y="420" />
              <mxPoint x="54" y="240" />
            </Array>
          </mxGeometry>
        </mxCell>
        <mxCell id="eX7FBQ3VJi4Dxy8bf9lc-6" value="insert.js" style="rounded=1;whiteSpace=wrap;html=1;" parent="1" vertex="1">
          <mxGeometry x="293" y="340" width="60" height="40" as="geometry" />
        </mxCell>
        <mxCell id="eX7FBQ3VJi4Dxy8bf9lc-50" style="edgeStyle=orthogonalEdgeStyle;rounded=0;orthogonalLoop=1;jettySize=auto;html=1;entryX=0;entryY=0.5;entryDx=0;entryDy=0;" parent="1" source="eX7FBQ3VJi4Dxy8bf9lc-7" target="eX7FBQ3VJi4Dxy8bf9lc-15" edge="1">
          <mxGeometry relative="1" as="geometry">
            <Array as="points">
              <mxPoint x="393" y="420" />
              <mxPoint x="54" y="420" />
              <mxPoint x="54" y="240" />
            </Array>
          </mxGeometry>
        </mxCell>
        <mxCell id="eX7FBQ3VJi4Dxy8bf9lc-7" value="paste.js" style="rounded=1;whiteSpace=wrap;html=1;" parent="1" vertex="1">
          <mxGeometry x="363" y="340" width="60" height="40" as="geometry" />
        </mxCell>
        <mxCell id="eX7FBQ3VJi4Dxy8bf9lc-49" style="edgeStyle=orthogonalEdgeStyle;rounded=0;orthogonalLoop=1;jettySize=auto;html=1;entryX=0;entryY=0.5;entryDx=0;entryDy=0;" parent="1" source="eX7FBQ3VJi4Dxy8bf9lc-8" target="eX7FBQ3VJi4Dxy8bf9lc-15" edge="1">
          <mxGeometry relative="1" as="geometry">
            <Array as="points">
              <mxPoint x="463" y="420" />
              <mxPoint x="54" y="420" />
              <mxPoint x="54" y="240" />
            </Array>
          </mxGeometry>
        </mxCell>
        <mxCell id="eX7FBQ3VJi4Dxy8bf9lc-8" value="record.js" style="rounded=1;whiteSpace=wrap;html=1;" parent="1" vertex="1">
          <mxGeometry x="433" y="340" width="60" height="40" as="geometry" />
        </mxCell>
        <mxCell id="eX7FBQ3VJi4Dxy8bf9lc-46" style="edgeStyle=orthogonalEdgeStyle;rounded=0;orthogonalLoop=1;jettySize=auto;html=1;entryX=0;entryY=0.5;entryDx=0;entryDy=0;" parent="1" source="eX7FBQ3VJi4Dxy8bf9lc-9" target="eX7FBQ3VJi4Dxy8bf9lc-15" edge="1">
          <mxGeometry relative="1" as="geometry">
            <Array as="points">
              <mxPoint x="533" y="420" />
              <mxPoint x="54" y="420" />
              <mxPoint x="54" y="240" />
            </Array>
          </mxGeometry>
        </mxCell>
        <mxCell id="eX7FBQ3VJi4Dxy8bf9lc-9" value="redo.js" style="rounded=1;whiteSpace=wrap;html=1;" parent="1" vertex="1">
          <mxGeometry x="503" y="340" width="60" height="40" as="geometry" />
        </mxCell>
        <mxCell id="eX7FBQ3VJi4Dxy8bf9lc-45" style="edgeStyle=orthogonalEdgeStyle;rounded=0;orthogonalLoop=1;jettySize=auto;html=1;entryX=0;entryY=0.5;entryDx=0;entryDy=0;" parent="1" source="eX7FBQ3VJi4Dxy8bf9lc-10" target="eX7FBQ3VJi4Dxy8bf9lc-15" edge="1">
          <mxGeometry relative="1" as="geometry">
            <Array as="points">
              <mxPoint x="603" y="420" />
              <mxPoint x="54" y="420" />
              <mxPoint x="54" y="240" />
            </Array>
          </mxGeometry>
        </mxCell>
        <mxCell id="eX7FBQ3VJi4Dxy8bf9lc-10" value="replay.js" style="rounded=1;whiteSpace=wrap;html=1;" parent="1" vertex="1">
          <mxGeometry x="573" y="340" width="60" height="40" as="geometry" />
        </mxCell>
        <mxCell id="eX7FBQ3VJi4Dxy8bf9lc-44" style="edgeStyle=orthogonalEdgeStyle;rounded=0;orthogonalLoop=1;jettySize=auto;html=1;entryX=0;entryY=0.5;entryDx=0;entryDy=0;" parent="1" source="eX7FBQ3VJi4Dxy8bf9lc-11" target="eX7FBQ3VJi4Dxy8bf9lc-15" edge="1">
          <mxGeometry relative="1" as="geometry">
            <Array as="points">
              <mxPoint x="673" y="420" />
              <mxPoint x="54" y="420" />
              <mxPoint x="54" y="240" />
            </Array>
          </mxGeometry>
        </mxCell>
        <mxCell id="eX7FBQ3VJi4Dxy8bf9lc-11" value="select.js" style="rounded=1;whiteSpace=wrap;html=1;" parent="1" vertex="1">
          <mxGeometry x="643" y="340" width="60" height="40" as="geometry" />
        </mxCell>
        <mxCell id="eX7FBQ3VJi4Dxy8bf9lc-38" style="edgeStyle=orthogonalEdgeStyle;rounded=0;orthogonalLoop=1;jettySize=auto;html=1;entryX=0;entryY=0.5;entryDx=0;entryDy=0;exitX=0.5;exitY=1;exitDx=0;exitDy=0;" parent="1" source="eX7FBQ3VJi4Dxy8bf9lc-12" edge="1">
          <mxGeometry relative="1" as="geometry">
            <mxPoint x="743" y="390" as="sourcePoint" />
            <mxPoint x="153" y="240" as="targetPoint" />
            <Array as="points">
              <mxPoint x="743" y="420" />
              <mxPoint x="54" y="420" />
              <mxPoint x="54" y="240" />
            </Array>
          </mxGeometry>
        </mxCell>
        <mxCell id="eX7FBQ3VJi4Dxy8bf9lc-12" value="undo.js" style="rounded=1;whiteSpace=wrap;html=1;" parent="1" vertex="1">
          <mxGeometry x="713" y="340" width="60" height="40" as="geometry" />
        </mxCell>
        <mxCell id="eX7FBQ3VJi4Dxy8bf9lc-13" value="const.js" style="rounded=1;whiteSpace=wrap;html=1;" parent="1" vertex="1">
          <mxGeometry x="274" y="220" width="60" height="40" as="geometry" />
        </mxCell>
        <mxCell id="eX7FBQ3VJi4Dxy8bf9lc-43" style="edgeStyle=orthogonalEdgeStyle;rounded=0;orthogonalLoop=1;jettySize=auto;html=1;entryX=1;entryY=0.5;entryDx=0;entryDy=0;" parent="1" source="eX7FBQ3VJi4Dxy8bf9lc-14" target="eX7FBQ3VJi4Dxy8bf9lc-26" edge="1">
          <mxGeometry relative="1" as="geometry">
            <Array as="points">
              <mxPoint x="604" y="210" />
              <mxPoint x="604" y="120" />
            </Array>
          </mxGeometry>
        </mxCell>
        <mxCell id="eX7FBQ3VJi4Dxy8bf9lc-14" value="engine.js" style="rounded=1;whiteSpace=wrap;html=1;" parent="1" vertex="1">
          <mxGeometry x="573" y="220" width="60" height="40" as="geometry" />
        </mxCell>
        <mxCell id="eX7FBQ3VJi4Dxy8bf9lc-39" style="edgeStyle=orthogonalEdgeStyle;rounded=0;orthogonalLoop=1;jettySize=auto;html=1;entryX=0;entryY=0.5;entryDx=0;entryDy=0;" parent="1" source="eX7FBQ3VJi4Dxy8bf9lc-15" target="eX7FBQ3VJi4Dxy8bf9lc-26" edge="1">
          <mxGeometry relative="1" as="geometry">
            <Array as="points">
              <mxPoint x="183" y="150" />
            </Array>
          </mxGeometry>
        </mxCell>
        <mxCell id="eX7FBQ3VJi4Dxy8bf9lc-15" value="log.js" style="rounded=1;whiteSpace=wrap;html=1;" parent="1" vertex="1">
          <mxGeometry x="153" y="220" width="60" height="40" as="geometry" />
        </mxCell>
        <mxCell id="eX7FBQ3VJi4Dxy8bf9lc-17" style="edgeStyle=orthogonalEdgeStyle;rounded=0;orthogonalLoop=1;jettySize=auto;html=1;entryX=0.5;entryY=0;entryDx=0;entryDy=0;" parent="1" target="eX7FBQ3VJi4Dxy8bf9lc-3" edge="1">
          <mxGeometry relative="1" as="geometry">
            <mxPoint x="428" y="240" as="sourcePoint" />
            <mxPoint x="107" y="340" as="targetPoint" />
            <Array as="points">
              <mxPoint x="428" y="300" />
              <mxPoint x="113" y="300" />
            </Array>
          </mxGeometry>
        </mxCell>
        <mxCell id="eX7FBQ3VJi4Dxy8bf9lc-18" style="edgeStyle=orthogonalEdgeStyle;rounded=0;orthogonalLoop=1;jettySize=auto;html=1;entryX=0.5;entryY=0;entryDx=0;entryDy=0;" parent="1" edge="1">
          <mxGeometry relative="1" as="geometry">
            <mxPoint x="426.99" y="240" as="sourcePoint" />
            <mxPoint x="255.99" y="340" as="targetPoint" />
            <Array as="points">
              <mxPoint x="427" y="300" />
              <mxPoint x="256" y="300" />
            </Array>
          </mxGeometry>
        </mxCell>
        <mxCell id="eX7FBQ3VJi4Dxy8bf9lc-19" style="edgeStyle=orthogonalEdgeStyle;rounded=0;orthogonalLoop=1;jettySize=auto;html=1;entryX=0.5;entryY=0;entryDx=0;entryDy=0;" parent="1" source="eX7FBQ3VJi4Dxy8bf9lc-16" target="eX7FBQ3VJi4Dxy8bf9lc-6" edge="1">
          <mxGeometry relative="1" as="geometry">
            <Array as="points">
              <mxPoint x="428" y="300" />
              <mxPoint x="323" y="300" />
            </Array>
          </mxGeometry>
        </mxCell>
        <mxCell id="eX7FBQ3VJi4Dxy8bf9lc-20" style="edgeStyle=orthogonalEdgeStyle;rounded=0;orthogonalLoop=1;jettySize=auto;html=1;entryX=0.5;entryY=0;entryDx=0;entryDy=0;" parent="1" source="eX7FBQ3VJi4Dxy8bf9lc-16" target="eX7FBQ3VJi4Dxy8bf9lc-7" edge="1">
          <mxGeometry relative="1" as="geometry">
            <Array as="points">
              <mxPoint x="428" y="300" />
              <mxPoint x="393" y="300" />
            </Array>
          </mxGeometry>
        </mxCell>
        <mxCell id="eX7FBQ3VJi4Dxy8bf9lc-21" style="edgeStyle=orthogonalEdgeStyle;rounded=0;orthogonalLoop=1;jettySize=auto;html=1;entryX=0.5;entryY=0;entryDx=0;entryDy=0;" parent="1" source="eX7FBQ3VJi4Dxy8bf9lc-16" target="eX7FBQ3VJi4Dxy8bf9lc-8" edge="1">
          <mxGeometry relative="1" as="geometry">
            <Array as="points">
              <mxPoint x="428" y="300" />
              <mxPoint x="463" y="300" />
            </Array>
          </mxGeometry>
        </mxCell>
        <mxCell id="eX7FBQ3VJi4Dxy8bf9lc-22" style="edgeStyle=orthogonalEdgeStyle;rounded=0;orthogonalLoop=1;jettySize=auto;html=1;entryX=0.5;entryY=0;entryDx=0;entryDy=0;" parent="1" source="eX7FBQ3VJi4Dxy8bf9lc-16" target="eX7FBQ3VJi4Dxy8bf9lc-9" edge="1">
          <mxGeometry relative="1" as="geometry">
            <Array as="points">
              <mxPoint x="428" y="300" />
              <mxPoint x="533" y="300" />
            </Array>
          </mxGeometry>
        </mxCell>
        <mxCell id="eX7FBQ3VJi4Dxy8bf9lc-23" style="edgeStyle=orthogonalEdgeStyle;rounded=0;orthogonalLoop=1;jettySize=auto;html=1;entryX=0.5;entryY=0;entryDx=0;entryDy=0;" parent="1" source="eX7FBQ3VJi4Dxy8bf9lc-16" target="eX7FBQ3VJi4Dxy8bf9lc-10" edge="1">
          <mxGeometry relative="1" as="geometry">
            <Array as="points">
              <mxPoint x="428" y="300" />
              <mxPoint x="603" y="300" />
            </Array>
          </mxGeometry>
        </mxCell>
        <mxCell id="eX7FBQ3VJi4Dxy8bf9lc-24" style="edgeStyle=orthogonalEdgeStyle;rounded=0;orthogonalLoop=1;jettySize=auto;html=1;entryX=0.5;entryY=0;entryDx=0;entryDy=0;" parent="1" source="eX7FBQ3VJi4Dxy8bf9lc-16" target="eX7FBQ3VJi4Dxy8bf9lc-11" edge="1">
          <mxGeometry relative="1" as="geometry">
            <Array as="points">
              <mxPoint x="428" y="300" />
              <mxPoint x="673" y="300" />
            </Array>
          </mxGeometry>
        </mxCell>
        <mxCell id="eX7FBQ3VJi4Dxy8bf9lc-25" style="edgeStyle=orthogonalEdgeStyle;rounded=0;orthogonalLoop=1;jettySize=auto;html=1;entryX=0.5;entryY=0;entryDx=0;entryDy=0;" parent="1" source="eX7FBQ3VJi4Dxy8bf9lc-16" target="eX7FBQ3VJi4Dxy8bf9lc-12" edge="1">
          <mxGeometry relative="1" as="geometry">
            <Array as="points">
              <mxPoint x="352" y="300" />
              <mxPoint x="742" y="300" />
            </Array>
          </mxGeometry>
        </mxCell>
        <mxCell id="eX7FBQ3VJi4Dxy8bf9lc-31" style="edgeStyle=orthogonalEdgeStyle;rounded=0;orthogonalLoop=1;jettySize=auto;html=1;" parent="1" edge="1">
          <mxGeometry relative="1" as="geometry">
            <mxPoint x="427.03000000000003" y="240" as="sourcePoint" />
            <mxPoint x="184" y="340" as="targetPoint" />
            <Array as="points">
              <mxPoint x="427" y="300" />
              <mxPoint x="184" y="300" />
              <mxPoint x="184" y="340" />
            </Array>
          </mxGeometry>
        </mxCell>
        <mxCell id="eX7FBQ3VJi4Dxy8bf9lc-42" style="edgeStyle=orthogonalEdgeStyle;rounded=0;orthogonalLoop=1;jettySize=auto;html=1;entryX=0;entryY=0.5;entryDx=0;entryDy=0;" parent="1" source="eX7FBQ3VJi4Dxy8bf9lc-16" target="eX7FBQ3VJi4Dxy8bf9lc-14" edge="1">
          <mxGeometry relative="1" as="geometry" />
        </mxCell>
        <mxCell id="eX7FBQ3VJi4Dxy8bf9lc-16" value="listeners.js" style="rounded=1;whiteSpace=wrap;html=1;" parent="1" vertex="1">
          <mxGeometry x="393" y="220" width="70" height="40" as="geometry" />
        </mxCell>
        <mxCell id="eX7FBQ3VJi4Dxy8bf9lc-36" style="edgeStyle=orthogonalEdgeStyle;rounded=0;orthogonalLoop=1;jettySize=auto;html=1;entryX=0.5;entryY=0;entryDx=0;entryDy=0;" parent="1" source="eX7FBQ3VJi4Dxy8bf9lc-26" target="eX7FBQ3VJi4Dxy8bf9lc-16" edge="1">
          <mxGeometry relative="1" as="geometry" />
        </mxCell>
        <mxCell id="eX7FBQ3VJi4Dxy8bf9lc-26" value="index.html" style="rounded=0;whiteSpace=wrap;html=1;" parent="1" vertex="1">
          <mxGeometry x="371" y="130" width="114" height="40" as="geometry" />
        </mxCell>
        <mxCell id="eX7FBQ3VJi4Dxy8bf9lc-28" value="styles.css" style="ellipse;whiteSpace=wrap;html=1;" parent="1" vertex="1">
          <mxGeometry x="443" y="160" width="70" height="40" as="geometry" />
        </mxCell>
        <mxCell id="eX7FBQ3VJi4Dxy8bf9lc-55" value="updates" style="text;html=1;align=center;verticalAlign=middle;whiteSpace=wrap;rounded=0;" parent="1" vertex="1">
          <mxGeometry x="530" y="150" width="60" height="30" as="geometry" />
        </mxCell>
        <mxCell id="eX7FBQ3VJi4Dxy8bf9lc-56" value="calls" style="text;html=1;align=center;verticalAlign=middle;whiteSpace=wrap;rounded=0;" parent="1" vertex="1">
          <mxGeometry x="503" y="240" width="60" height="30" as="geometry" />
        </mxCell>
        <mxCell id="eX7FBQ3VJi4Dxy8bf9lc-57" value="adds log to" style="text;html=1;align=center;verticalAlign=middle;whiteSpace=wrap;rounded=0;" parent="1" vertex="1">
          <mxGeometry x="261" y="150" width="110" height="30" as="geometry" />
        </mxCell>
        <mxCell id="eX7FBQ3VJi4Dxy8bf9lc-58" value="calls" style="text;html=1;align=center;verticalAlign=middle;whiteSpace=wrap;rounded=0;" parent="1" vertex="1">
          <mxGeometry x="363" y="270" width="60" height="30" as="geometry" />
        </mxCell>
        <mxCell id="eX7FBQ3VJi4Dxy8bf9lc-59" value="calls" style="text;html=1;align=center;verticalAlign=middle;whiteSpace=wrap;rounded=0;" parent="1" vertex="1">
          <mxGeometry x="83" y="240" width="60" height="30" as="geometry" />
        </mxCell>
        <mxCell id="9FOkke3YLSe6A7hBbU1s-1" value="types" style="text;html=1;align=center;verticalAlign=middle;whiteSpace=wrap;rounded=0;" vertex="1" parent="1">
          <mxGeometry x="430" y="90" width="55" height="30" as="geometry" />
        </mxCell>
        <mxCell id="9FOkke3YLSe6A7hBbU1s-2" value="user" style="text;html=1;align=center;verticalAlign=middle;whiteSpace=wrap;rounded=0;" vertex="1" parent="1">
          <mxGeometry x="444" y="45" width="38" height="30" as="geometry" />
        </mxCell>
      </root>
    </mxGraphModel>
  </diagram>
</mxfile>
